<svg width="1920" height="1080" xmlns="http://www.w3.org/2000/svg" stroke="null">
 <g id="Layer_1">
  <title>Layer 1</title>
  <path id="svg_4" d="m2096.13841,935.48604c0.49667,-0.62712 0.99334,0.62712 1.49,0l0,1.12882c-0.49667,0.62712 -0.99334,-0.62712 -1.49,0l0,-1.12882z" stroke-width="0" stroke="#000" fill="#f4e9d3"/>
  <path id="svg_16" d="m1389.38598,459.69482c0.49667,-0.62712 0.99334,0.62712 1.49,0l0,1.12882c-0.49667,0.62712 -0.99334,-0.62712 -1.49,0l0,-1.12882z" stroke-width="0" stroke="#000" fill="#b3d7d3"/>
  <rect stroke="#f4e9d3" id="svg_26" height="1357.77831" width="2160.00071" y="-106.6665" x="-122.22184" stroke-width="0" fill="#f4e9d3"/>
  <g id="svg_24">
   <path transform="rotate(21 -331.794 892.502)" stroke="#000" id="svg_8" d="m-1995.20264,870.74047c1505.7592,-58.87693 2332.95739,141.30463 2287.71999,518.11698c-45.2374,376.81235 -2365.26982,-323.82311 -2365.26982,-335.5985c0,-11.77539 3741.77931,-1501.36171 3496.20485,-217.84464c-245.57446,1283.51707 -3528.51728,29.43846 -3522.05479,29.43846c-6.46249,0 1654.39638,-930.25549 1790.10858,-435.68928c135.7122,494.56621 -1731.94621,1071.56012 -1731.94621,1071.56012c0,0 1615.62146,-777.17547 1615.62146,-777.17547" opacity="NaN" stroke-width="0" fill="#b3d7d3"/>
   <path transform="rotate(15 915.233 296.228)" stroke="#000" id="svg_18" d="m-186.70864,421.53583c486.70271,-815.04766 1469.33419,51.0547 2204.00121,0l0,91.89846c-734.66702,51.05471 -2219.31133,-146.95278 -2204.00121,0l0,-91.89846z" stroke-width="0" fill="#b3d7d3"/>
   <ellipse stroke="#000" ry="533.3337" rx="251.66686" id="svg_21" cy="-117.22265" cx="1943.88982" stroke-width="0" fill="#b3d7d3"/>
  </g>
 </g>
</svg>