<svg width="44" height="44" viewBox="0 0 44 44" fill="none" xmlns="http://www.w3.org/2000/svg">
    <path d="M17.6643 7.70362C17.7746 7.92823 17.8475 8.16876 17.8802 8.41604L18.4834 17.3859V17.3859L18.7829 21.8943C18.786 22.3579 18.8587 22.8186 18.9988 23.2614C19.3605 24.1205 20.2305 24.6665 21.1771 24.6285L35.6012 23.685C36.2258 23.6747 36.829 23.9083 37.278 24.3344C37.6522 24.6895 37.8938 25.154 37.9699 25.6537L37.9954 25.957C37.3985 34.2223 31.3282 41.1161 23.0801 42.8956C14.832 44.6752 6.37404 40.916 2.2982 33.6589C1.12317 31.5506 0.389242 29.2332 0.139494 26.8428C0.0351619 26.1351 -0.0107781 25.4204 0.00212166 24.7055C-0.0107596 15.8442 6.29952 8.18339 15.1327 6.33654C16.1959 6.171 17.2381 6.73381 17.6643 7.70362Z" fill="#97A5EB"/>
    <path opacity="0.4" d="M23.5516 0.0017749C33.4313 0.253124 41.7349 7.35754 43.3332 16.9266L43.318 16.9972V16.9972L43.2744 17.0999L43.2804 17.3818C43.2578 17.7552 43.1136 18.1145 42.8652 18.4047C42.6063 18.707 42.2527 18.9129 41.8633 18.9928L41.6259 19.0254L24.9842 20.1037C24.4306 20.1582 23.8795 19.9797 23.4678 19.6126C23.1248 19.3066 22.9055 18.8935 22.8435 18.4485L21.7265 1.83097C21.7071 1.77478 21.7071 1.71387 21.7265 1.65768C21.7418 1.19962 21.9434 0.766653 22.2863 0.455498C22.6293 0.144343 23.085 -0.0190675 23.5516 0.0017749Z" fill="#FFCC91"/>
</svg>
